<svg id="svg" version="1.1" xmlns="http://www.w3.org/2000/svg" xmlns:xlink="http://www.w3.org/1999/xlink" width="400" height="400" viewBox="0, 0, 400,400"><g id="svgg"><path id="path0" d="M126.651 31.952 C 126.602 31.996,126.094 32.087,125.521 32.152 C 124.256 32.298,123.832 32.391,123.021 32.704 C 122.677 32.837,122.372 32.939,122.344 32.931 C 122.291 32.917,122.216 32.931,121.927 33.013 C 121.184 33.222,117.829 34.857,117.743 35.051 C 117.705 35.138,117.541 35.208,117.378 35.208 C 117.216 35.208,117.083 35.302,117.083 35.417 C 117.083 35.531,116.940 35.625,116.764 35.625 C 116.589 35.625,116.391 35.766,116.325 35.938 C 116.259 36.109,116.119 36.250,116.014 36.250 C 115.763 36.250,112.500 39.511,112.500 39.762 C 112.500 39.868,112.359 40.009,112.188 40.075 C 112.016 40.141,111.875 40.339,111.875 40.514 C 111.875 40.690,111.781 40.833,111.667 40.833 C 111.552 40.833,111.458 40.974,111.458 41.146 C 111.458 41.318,111.365 41.458,111.250 41.458 C 111.135 41.458,111.042 41.599,111.042 41.771 C 111.042 41.943,110.942 42.083,110.821 42.083 C 110.700 42.083,110.658 42.177,110.729 42.292 C 110.800 42.406,110.777 42.500,110.677 42.500 C 110.530 42.500,109.736 44.002,109.687 44.375 C 109.679 44.432,109.556 44.690,109.412 44.948 C 109.269 45.206,109.214 45.417,109.289 45.417 C 109.364 45.417,109.309 45.557,109.167 45.729 C 109.024 45.901,108.977 46.042,109.063 46.042 C 109.148 46.042,109.101 46.182,108.958 46.354 C 108.816 46.526,108.761 46.667,108.836 46.667 C 108.911 46.667,108.878 46.845,108.761 47.063 C 108.644 47.281,108.494 47.960,108.428 48.573 C 108.361 49.186,108.258 49.828,108.199 50.000 C 108.027 50.507,107.856 57.022,108.000 57.597 L 108.133 58.125 199.995 58.125 L 291.856 58.125 292.000 57.358 C 292.079 56.937,292.083 55.226,292.008 53.556 C 291.866 50.384,291.820 49.936,291.462 48.229 C 291.095 46.477,291.044 46.281,290.796 45.683 C 290.664 45.364,290.546 45.057,290.535 45.000 C 290.437 44.520,288.390 40.762,288.183 40.683 C 288.037 40.626,287.917 40.447,287.917 40.284 C 287.917 40.120,287.776 39.933,287.604 39.867 C 287.432 39.801,287.292 39.652,287.292 39.537 C 287.292 39.256,284.502 36.458,284.222 36.458 C 284.101 36.458,283.949 36.318,283.883 36.146 C 283.817 35.974,283.620 35.833,283.444 35.833 C 283.269 35.833,283.125 35.740,283.125 35.625 C 283.125 35.510,282.984 35.417,282.813 35.417 C 282.641 35.417,282.500 35.323,282.500 35.208 C 282.500 35.094,282.359 35.000,282.188 35.000 C 282.016 35.000,281.875 34.928,281.875 34.841 C 281.875 34.603,278.671 33.130,278.313 33.204 C 278.245 33.218,278.034 33.100,277.845 32.943 C 277.655 32.786,277.500 32.713,277.500 32.782 C 277.500 32.850,277.242 32.806,276.927 32.684 C 276.612 32.562,276.167 32.424,275.938 32.378 C 275.708 32.333,275.286 32.225,275.000 32.139 C 274.482 31.984,126.821 31.798,126.651 31.952 M300.573 69.947 C 301.747 69.984,303.669 69.984,304.844 69.947 C 306.018 69.910,305.057 69.880,302.708 69.880 C 300.359 69.880,299.398 69.910,300.573 69.947 M92.806 82.500 C 92.806 89.432,92.832 92.268,92.864 88.802 C 92.897 85.336,92.897 79.664,92.864 76.198 C 92.832 72.732,92.806 75.568,92.806 82.500 M106.352 108.802 C 106.416 109.633,106.512 110.781,106.566 111.354 C 106.675 112.517,106.858 114.618,106.973 116.042 C 107.057 117.074,107.265 119.375,107.407 120.833 C 107.457 121.349,107.550 122.380,107.614 123.125 C 107.678 123.870,107.770 124.901,107.817 125.417 C 107.865 125.932,107.954 126.917,108.015 127.604 C 108.076 128.292,108.175 129.370,108.235 130.000 C 108.295 130.630,108.385 131.661,108.435 132.292 C 108.485 132.922,108.576 133.953,108.638 134.583 C 108.700 135.214,108.802 136.339,108.866 137.083 C 108.929 137.828,109.019 138.859,109.066 139.375 C 109.234 141.215,109.401 143.034,109.478 143.854 C 109.581 144.951,109.747 146.840,109.899 148.646 C 109.967 149.448,110.061 150.526,110.109 151.042 C 110.467 154.930,110.576 156.144,110.728 157.917 C 110.963 160.646,111.193 163.235,111.349 164.896 C 111.403 165.469,111.499 166.500,111.563 167.188 C 111.627 167.875,111.719 168.859,111.768 169.375 C 111.816 169.891,111.904 170.875,111.962 171.563 C 112.141 173.679,112.307 175.496,112.370 176.042 L 112.430 176.563 200.017 176.563 L 287.604 176.563 287.634 176.042 C 287.663 175.528,287.845 173.497,288.026 171.667 C 288.077 171.151,288.170 170.120,288.232 169.375 C 288.544 165.646,288.587 165.174,288.847 162.500 C 288.898 161.984,288.994 160.906,289.061 160.104 C 289.129 159.302,289.225 158.224,289.276 157.708 C 289.327 157.193,289.425 156.068,289.494 155.208 C 289.563 154.349,289.655 153.271,289.700 152.813 C 289.744 152.354,289.836 151.323,289.904 150.521 C 289.971 149.719,290.064 148.688,290.111 148.229 C 290.279 146.560,290.417 145.075,290.526 143.750 C 290.588 143.005,290.686 141.880,290.745 141.250 C 290.803 140.620,290.889 139.635,290.936 139.063 C 290.983 138.490,291.075 137.505,291.139 136.875 C 291.204 136.245,291.309 135.073,291.371 134.271 C 291.434 133.469,291.520 132.438,291.563 131.979 C 291.639 131.172,291.800 129.429,291.975 127.500 C 292.060 126.570,292.229 124.609,292.396 122.604 C 292.444 122.031,292.537 121.047,292.603 120.417 C 292.669 119.786,292.769 118.708,292.826 118.021 C 293.002 115.893,293.222 113.446,293.435 111.250 C 293.496 110.620,293.593 109.471,293.649 108.698 L 293.753 107.292 199.995 107.292 L 106.237 107.292 106.352 108.802 M214.267 222.917 C 214.267 234.776,214.292 239.628,214.323 233.698 C 214.354 227.768,214.354 218.065,214.323 212.135 C 214.292 206.206,214.267 211.057,214.267 222.917 M154.263 213.175 C 154.208 213.319,154.187 217.797,154.217 223.125 L 154.271 232.813 164.271 232.813 L 174.271 232.813 174.271 222.917 L 174.271 213.021 164.317 212.967 C 156.465 212.924,154.342 212.968,154.263 213.175 M225.930 213.175 C 225.874 213.319,225.853 217.797,225.883 223.125 L 225.938 232.813 235.833 232.813 L 245.729 232.813 245.729 222.917 L 245.729 213.021 235.880 212.967 C 228.111 212.924,226.009 212.968,225.930 213.175 M174.167 222.919 L 174.167 232.712 164.323 232.658 L 154.479 232.604 154.425 222.865 L 154.371 213.125 164.269 213.125 L 174.167 213.125 174.167 222.919 M245.625 222.917 L 245.625 232.708 235.833 232.708 L 226.042 232.708 226.042 222.917 L 226.042 213.125 235.833 213.125 L 245.625 213.125 245.625 222.917 M161.042 222.917 L 161.042 226.250 164.271 226.250 L 167.500 226.250 167.500 222.917 L 167.500 219.583 164.271 219.583 L 161.042 219.583 161.042 222.917 M232.500 222.917 L 232.500 226.250 235.833 226.250 L 239.167 226.250 239.167 222.917 L 239.167 219.583 235.833 219.583 L 232.500 219.583 232.500 222.917 M167.292 222.917 L 167.292 226.042 164.271 226.042 L 161.250 226.042 161.250 222.917 L 161.250 219.792 164.271 219.792 L 167.292 219.792 167.292 222.917 M238.958 222.917 L 238.958 226.042 235.833 226.042 L 232.708 226.042 232.708 222.917 L 232.708 219.792 235.833 219.792 L 238.958 219.792 238.958 222.917 M208.017 247.500 C 208.017 259.130,208.042 263.888,208.073 258.073 C 208.104 252.258,208.104 242.742,208.073 236.927 C 208.042 231.112,208.017 235.870,208.017 247.500 M225.508 261.458 C 225.508 264.724,225.537 266.060,225.572 264.427 C 225.608 262.794,225.608 260.122,225.572 258.490 C 225.537 256.857,225.508 258.193,225.508 261.458 M214.263 272.344 C 214.208 272.487,214.188 282.214,214.217 293.958 L 214.271 315.313 214.375 293.698 C 214.432 281.810,214.453 272.083,214.421 272.083 C 214.388 272.083,214.317 272.201,214.263 272.344 M142.600 293.750 C 142.600 305.609,142.625 310.461,142.656 304.531 C 142.687 298.602,142.687 288.898,142.656 282.969 C 142.625 277.039,142.600 281.891,142.600 293.750 M154.217 293.698 L 154.271 303.646 164.167 303.646 L 174.063 303.646 174.117 293.698 L 174.171 283.750 164.167 283.750 L 154.163 283.750 154.217 293.698 M225.883 293.698 L 225.938 303.646 235.833 303.646 L 245.729 303.646 245.783 293.698 C 245.834 284.316,245.817 283.751,245.471 283.766 C 245.253 283.776,245.210 283.826,245.365 283.888 C 245.568 283.970,245.625 286.143,245.625 293.767 L 245.625 303.542 235.829 303.542 L 226.034 303.542 226.090 293.646 C 226.121 288.203,226.075 283.750,225.988 283.750 C 225.901 283.750,225.854 288.227,225.883 293.698 M231.108 283.906 C 233.723 283.939,237.941 283.939,240.483 283.906 C 243.025 283.873,240.885 283.846,235.729 283.846 C 230.573 283.846,228.493 283.873,231.108 283.906 M173.958 293.750 L 173.958 303.542 164.167 303.542 L 154.375 303.542 154.375 293.750 L 154.375 283.958 164.167 283.958 L 173.958 283.958 173.958 293.750 M161.458 293.750 L 161.458 297.083 164.792 297.083 L 168.125 297.083 168.125 293.750 L 168.125 290.417 164.792 290.417 L 161.458 290.417 161.458 293.750 M233.012 290.639 C 232.937 290.761,232.931 290.917,233.000 290.986 C 233.069 291.055,233.125 291.002,233.125 290.868 C 233.125 290.694,234.008 290.625,236.250 290.625 L 239.375 290.625 239.375 293.750 L 239.375 296.875 236.256 296.875 L 233.137 296.875 233.070 294.219 L 233.003 291.563 233.012 294.271 L 233.021 296.979 236.302 297.037 L 239.583 297.094 239.583 293.755 L 239.583 290.417 236.366 290.417 C 234.313 290.417,233.100 290.497,233.012 290.639 M167.917 293.750 L 167.917 296.875 164.792 296.875 L 161.667 296.875 161.667 293.750 L 161.667 290.625 164.792 290.625 L 167.917 290.625 167.917 293.750 M127.412 343.698 C 127.421 344.242,127.503 344.855,127.594 345.060 C 127.685 345.265,127.701 345.798,127.629 346.245 C 127.552 346.728,127.588 347.113,127.717 347.193 C 127.836 347.266,127.933 347.811,127.932 348.403 C 127.930 350.337,128.020 351.558,128.185 351.815 C 128.275 351.953,128.347 352.516,128.347 353.065 C 128.346 354.741,128.461 356.127,128.635 356.517 C 128.725 356.721,128.744 357.166,128.676 357.506 C 128.599 357.890,128.638 358.125,128.779 358.125 C 128.910 358.125,128.964 358.348,128.907 358.646 C 128.853 358.932,128.895 359.167,129.001 359.167 C 129.108 359.167,129.132 359.366,129.054 359.609 C 128.960 359.907,128.989 360.006,129.144 359.910 C 129.356 359.779,129.456 360.081,129.431 360.779 C 129.426 360.921,129.521 360.976,129.642 360.901 C 129.781 360.815,129.812 360.898,129.725 361.122 C 129.633 361.363,129.667 361.431,129.829 361.331 C 129.992 361.230,130.026 361.298,129.934 361.539 C 129.841 361.780,129.875 361.848,130.038 361.747 C 130.200 361.647,130.234 361.715,130.142 361.956 C 130.060 362.168,130.088 362.262,130.211 362.186 C 130.400 362.069,130.509 362.356,130.436 362.776 C 130.420 362.870,130.502 362.888,130.620 362.816 C 130.737 362.743,130.845 362.783,130.859 362.904 C 130.874 363.026,130.897 363.242,130.911 363.385 C 130.926 363.529,131.031 363.651,131.146 363.656 C 131.449 363.672,133.031 365.250,132.964 365.470 C 132.932 365.572,132.989 365.605,133.089 365.543 C 133.190 365.481,133.450 365.575,133.667 365.751 C 133.885 365.928,133.931 366.004,133.770 365.921 C 133.582 365.823,133.529 365.852,133.620 366.000 C 133.699 366.128,133.916 366.173,134.103 366.101 C 134.334 366.013,134.394 366.051,134.290 366.220 C 134.205 366.357,134.213 366.444,134.307 366.414 C 134.569 366.331,135.833 366.901,135.833 367.102 C 135.833 367.199,135.974 367.225,136.146 367.159 C 136.318 367.093,136.458 367.140,136.458 367.263 C 136.458 367.386,136.599 367.433,136.771 367.367 C 136.943 367.301,137.083 367.342,137.083 367.458 C 137.083 367.574,137.271 367.620,137.500 367.560 C 137.729 367.500,137.917 367.554,137.917 367.679 C 137.917 367.818,138.149 367.860,138.516 367.786 C 138.857 367.718,139.177 367.765,139.258 367.896 C 139.360 368.062,156.127 368.125,200.000 368.125 C 243.873 368.125,260.640 368.062,260.742 367.896 C 260.823 367.765,261.143 367.718,261.484 367.786 C 261.851 367.860,262.083 367.818,262.083 367.679 C 262.083 367.554,262.271 367.500,262.500 367.560 C 262.729 367.620,262.917 367.574,262.917 367.458 C 262.917 367.342,263.057 367.301,263.229 367.367 C 263.401 367.433,263.542 367.386,263.542 367.263 C 263.542 367.140,263.687 367.095,263.865 367.163 C 264.076 367.244,264.137 367.203,264.039 367.046 C 263.940 366.884,264.005 366.848,264.237 366.937 C 264.427 367.010,264.583 366.986,264.583 366.883 C 264.583 366.684,265.402 366.344,265.693 366.422 C 265.787 366.448,265.805 366.373,265.732 366.255 C 265.612 366.060,265.892 365.948,266.318 366.022 C 266.412 366.039,266.430 365.956,266.357 365.838 C 266.285 365.721,266.325 365.613,266.446 365.599 C 266.567 365.585,266.760 365.561,266.875 365.547 C 266.990 365.533,267.088 365.427,267.093 365.313 C 267.105 365.058,268.346 363.754,268.520 363.812 C 268.589 363.835,268.679 363.760,268.718 363.646 C 268.930 363.040,269.213 362.712,269.418 362.839 C 269.556 362.925,269.589 362.886,269.499 362.741 C 269.324 362.458,269.865 361.601,270.082 361.818 C 270.163 361.900,270.163 361.790,270.080 361.574 C 269.976 361.303,270.004 361.228,270.171 361.331 C 270.333 361.431,270.367 361.363,270.275 361.122 C 270.182 360.882,270.216 360.814,270.379 360.914 C 270.537 361.012,270.577 360.951,270.496 360.740 C 270.428 360.562,270.473 360.417,270.596 360.417 C 270.719 360.417,270.766 360.276,270.700 360.104 C 270.634 359.932,270.681 359.792,270.805 359.792 C 270.928 359.792,270.975 359.651,270.909 359.479 C 270.843 359.307,270.894 359.167,271.023 359.167 C 271.170 359.167,271.209 358.970,271.127 358.646 C 271.048 358.330,271.085 358.125,271.222 358.125 C 271.361 358.125,271.400 357.888,271.324 357.506 C 271.256 357.166,271.275 356.721,271.365 356.517 C 271.539 356.127,271.654 354.741,271.653 353.065 C 271.653 352.516,271.725 351.953,271.815 351.815 C 271.980 351.558,272.070 350.337,272.068 348.403 C 272.067 347.811,272.164 347.266,272.283 347.193 C 272.412 347.113,272.448 346.728,272.371 346.245 C 272.299 345.798,272.315 345.265,272.406 345.060 C 272.497 344.855,272.579 344.242,272.588 343.698 L 272.604 342.709 200.000 342.709 L 127.396 342.709 127.412 343.698 " stroke="none" fill="#83634b" fill-rule="evenodd"></path><path id="path1" d="M195.885 70.156 L 92.917 70.209 92.920 82.448 C 92.922 89.180,92.998 94.805,93.089 94.948 C 93.221 95.156,114.764 95.198,200.117 95.156 L 306.979 95.104 307.033 82.722 C 307.075 72.954,307.031 70.304,306.825 70.173 C 306.680 70.081,304.828 70.028,302.708 70.055 C 300.589 70.082,252.518 70.127,195.885 70.156 M113.634 189.844 C 113.702 190.445,114.176 195.625,114.688 201.354 C 115.201 207.083,116.420 220.724,117.398 231.667 C 121.589 278.544,122.098 284.229,122.392 287.396 C 122.562 289.229,122.843 292.323,123.015 294.271 C 123.187 296.219,123.986 305.152,124.789 314.122 C 125.593 323.092,126.250 330.475,126.250 330.528 C 126.250 330.581,159.429 330.625,199.980 330.625 L 273.711 330.625 273.835 329.635 C 273.903 329.091,274.147 326.443,274.378 323.750 C 274.609 321.057,274.937 317.354,275.107 315.521 C 275.277 313.688,275.841 307.406,276.360 301.563 C 277.264 291.369,277.650 287.047,279.260 269.063 C 279.660 264.594,280.318 257.188,280.723 252.604 C 281.127 248.021,281.551 243.286,281.666 242.083 C 281.781 240.880,282.345 234.599,282.920 228.125 C 283.496 221.651,284.341 212.135,284.800 206.979 C 285.258 201.823,285.773 196.010,285.943 194.063 C 286.114 192.115,286.305 190.122,286.369 189.635 L 286.484 188.750 199.998 188.750 L 113.512 188.750 113.634 189.844 M185.833 222.917 L 185.833 244.583 164.271 244.583 L 142.708 244.583 142.708 223.056 C 142.708 211.215,142.771 201.465,142.847 201.389 C 142.924 201.313,152.627 201.250,164.410 201.250 L 185.833 201.250 185.833 222.917 M199.792 207.188 L 199.792 213.125 194.792 213.125 L 189.792 213.125 189.792 207.188 L 189.792 201.250 194.792 201.250 L 199.792 201.250 199.792 207.188 M257.292 222.918 L 257.292 244.585 235.781 244.532 L 214.271 244.479 214.217 223.125 C 214.188 211.380,214.208 201.654,214.263 201.510 C 214.341 201.304,218.847 201.250,235.827 201.250 L 257.292 201.250 257.292 222.918 M154.436 222.865 L 154.479 232.604 164.323 232.658 L 174.167 232.712 174.167 222.919 L 174.167 213.125 164.280 213.125 L 154.393 213.125 154.436 222.865 M226.042 222.917 L 226.042 232.708 235.833 232.708 L 245.625 232.708 245.625 222.917 L 245.625 213.125 235.833 213.125 L 226.042 213.125 226.042 222.917 M167.500 222.917 L 167.500 226.250 164.271 226.250 L 161.042 226.250 161.042 222.917 L 161.042 219.583 164.271 219.583 L 167.500 219.583 167.500 222.917 M239.167 222.917 L 239.167 226.250 235.833 226.250 L 232.500 226.250 232.500 222.917 L 232.500 219.583 235.833 219.583 L 239.167 219.583 239.167 222.917 M208.125 247.478 C 208.125 266.452,208.093 268.509,207.795 268.624 C 207.614 268.693,204.942 268.750,201.858 268.750 L 196.250 268.750 196.250 247.604 L 196.250 226.458 202.188 226.458 L 208.125 226.458 208.125 247.478 M257.292 259.061 L 257.292 267.497 241.406 267.446 L 225.521 267.396 225.466 261.406 L 225.410 255.417 235.518 255.417 L 245.625 255.417 245.625 253.021 L 245.625 250.625 251.458 250.625 L 257.292 250.625 257.292 259.061 M177.034 259.740 L 177.090 265.625 164.170 265.625 L 151.250 265.625 151.250 259.826 C 151.250 256.637,151.313 253.965,151.390 253.887 C 151.468 253.810,157.257 253.771,164.255 253.800 L 176.979 253.854 177.034 259.740 M185.625 293.646 L 185.625 315.208 164.063 315.208 L 142.500 315.208 142.500 293.646 L 142.500 272.083 164.063 272.083 L 185.625 272.083 185.625 293.646 M257.292 293.646 L 257.292 315.208 235.729 315.208 L 214.167 315.208 214.167 293.646 L 214.167 272.083 235.729 272.083 L 257.292 272.083 257.292 293.646 M204.375 290.729 L 204.375 303.333 206.771 303.333 L 209.167 303.333 209.167 309.271 L 209.167 315.208 200.833 315.208 L 192.500 315.208 192.500 296.667 L 192.500 278.125 198.438 278.125 L 204.375 278.125 204.375 290.729 M154.425 293.698 L 154.479 303.438 164.167 303.438 L 173.854 303.438 173.908 293.698 L 173.962 283.958 164.167 283.958 L 154.371 283.958 154.425 293.698 M226.092 293.698 L 226.146 303.438 235.833 303.438 L 245.521 303.438 245.575 293.698 L 245.629 283.958 235.833 283.958 L 226.038 283.958 226.092 293.698 M168.125 293.750 L 168.125 297.083 164.792 297.083 L 161.458 297.083 161.458 293.750 L 161.458 290.417 164.792 290.417 L 168.125 290.417 168.125 293.750 M239.583 293.750 L 239.583 297.083 236.250 297.083 L 232.917 297.083 232.917 293.750 L 232.917 290.417 236.250 290.417 L 239.583 290.417 239.583 293.750 " stroke="none" fill="#d3ab54" fill-rule="evenodd"></path><path id="path2" d="M142.708 222.917 L 142.708 244.375 164.271 244.375 L 185.833 244.375 185.833 222.917 L 185.833 201.458 164.271 201.458 L 142.708 201.458 142.708 222.917 M189.792 207.295 L 189.792 213.133 194.740 213.077 L 199.688 213.021 199.743 207.240 L 199.798 201.458 194.795 201.458 L 189.792 201.458 189.792 207.295 M214.375 222.917 L 214.375 244.375 235.833 244.375 L 257.292 244.375 257.292 222.917 L 257.292 201.458 235.833 201.458 L 214.375 201.458 214.375 222.917 M174.271 222.917 L 174.271 232.813 164.271 232.813 L 154.271 232.813 154.217 223.125 C 154.187 217.797,154.208 213.319,154.263 213.175 C 154.342 212.968,156.465 212.924,164.317 212.967 L 174.271 213.021 174.271 222.917 M245.729 222.917 L 245.729 232.813 235.833 232.813 L 225.938 232.813 225.883 223.125 C 225.853 217.797,225.874 213.319,225.930 213.175 C 226.009 212.968,228.111 212.924,235.880 212.967 L 245.729 213.021 245.729 222.917 M161.250 222.917 L 161.250 226.042 164.271 226.042 L 167.292 226.042 167.292 222.917 L 167.292 219.792 164.271 219.792 L 161.250 219.792 161.250 222.917 M232.708 222.917 L 232.708 226.042 235.833 226.042 L 238.958 226.042 238.958 222.917 L 238.958 219.792 235.833 219.792 L 232.708 219.792 232.708 222.917 M196.250 247.500 L 196.250 268.542 202.083 268.542 L 207.917 268.542 207.917 247.500 L 207.917 226.458 202.083 226.458 L 196.250 226.458 196.250 247.500 M245.625 253.125 L 245.625 255.625 235.625 255.625 L 225.625 255.625 225.625 261.458 L 225.625 267.292 241.458 267.292 L 257.292 267.292 257.292 258.958 L 257.292 250.625 251.458 250.625 L 245.625 250.625 245.625 253.125 M151.458 259.792 L 151.458 265.625 164.167 265.625 L 176.875 265.625 176.875 259.792 L 176.875 253.958 164.167 253.958 L 151.458 253.958 151.458 259.792 M142.708 293.645 L 142.708 315.208 164.168 315.208 L 185.627 315.208 185.574 293.698 L 185.521 272.188 164.115 272.134 L 142.708 272.081 142.708 293.645 M214.515 272.221 C 214.438 272.298,214.375 282.002,214.375 293.785 L 214.375 315.208 235.834 315.208 L 257.294 315.208 257.241 293.698 L 257.188 272.188 235.921 272.134 C 224.225 272.105,214.592 272.144,214.515 272.221 M192.597 278.382 C 192.542 278.527,192.521 286.849,192.550 296.875 L 192.604 315.104 200.885 315.159 L 209.167 315.213 209.167 309.377 L 209.167 303.542 206.771 303.542 C 204.630 303.542,204.374 303.503,204.369 303.177 C 204.366 302.977,204.343 297.281,204.317 290.521 L 204.271 278.229 198.484 278.174 C 193.967 278.131,192.676 278.176,192.597 278.382 M174.117 293.698 L 174.063 303.646 164.167 303.646 L 154.271 303.646 154.217 293.698 L 154.163 283.750 164.167 283.750 L 174.171 283.750 174.117 293.698 M245.783 293.698 L 245.729 303.646 235.833 303.646 L 225.938 303.646 225.883 293.698 L 225.829 283.750 235.833 283.750 L 245.837 283.750 245.783 293.698 M161.667 293.750 L 161.667 296.875 164.792 296.875 L 167.917 296.875 167.917 293.750 L 167.917 290.625 164.792 290.625 L 161.667 290.625 161.667 293.750 M233.125 293.750 L 233.125 296.875 236.250 296.875 L 239.375 296.875 239.375 293.750 L 239.375 290.625 236.250 290.625 L 233.125 290.625 233.125 293.750 " stroke="none" fill="#040404" fill-rule="evenodd"></path><path id="path3" d="M125.946 20.032 C 108.794 21.542,96.564 35.075,96.103 53.055 L 95.985 57.673 90.649 57.745 L 85.313 57.818 84.129 58.397 C 82.789 59.052,81.810 60.060,81.168 61.448 C 80.477 62.941,80.477 102.267,81.168 103.761 C 82.580 106.814,83.863 107.378,89.589 107.462 L 94.074 107.528 95.582 124.337 C 96.412 133.582,98.305 154.646,99.788 171.146 C 101.272 187.646,103.050 207.474,103.739 215.208 C 105.565 235.699,110.174 287.356,111.984 307.604 C 112.844 317.229,114.200 332.417,114.997 341.354 C 116.916 362.875,116.862 362.529,118.966 366.817 C 122.695 374.419,129.838 379.235,138.532 380.011 C 143.144 380.423,262.279 380.157,264.161 379.731 C 271.873 377.984,277.724 373.503,281.091 366.764 C 282.664 363.615,283.205 361.243,283.752 355.082 C 283.985 352.459,284.500 346.656,284.895 342.188 C 285.290 337.719,286.698 321.969,288.022 307.188 C 289.347 292.406,290.706 277.219,291.044 273.438 C 291.834 264.577,293.810 242.509,295.529 223.333 C 296.274 215.026,297.398 202.464,298.027 195.417 C 298.656 188.370,299.355 180.542,299.580 178.021 C 299.805 175.500,300.602 166.547,301.351 158.125 C 302.099 149.703,302.897 140.797,303.123 138.333 C 303.350 135.870,303.958 129.073,304.475 123.229 C 304.993 117.385,305.510 111.627,305.625 110.433 C 305.739 109.238,305.833 108.098,305.833 107.898 C 305.833 107.566,306.224 107.529,310.365 107.464 C 316.052 107.374,317.283 106.861,318.690 103.996 L 319.271 102.813 319.271 82.604 L 319.271 62.396 318.685 61.202 C 317.261 58.304,316.012 57.842,309.353 57.748 L 304.019 57.673 303.899 53.368 C 303.381 34.846,291.275 21.541,273.542 20.003 C 270.529 19.742,128.927 19.769,125.946 20.032 M275.000 32.139 C 275.286 32.225,275.708 32.333,275.938 32.378 C 276.167 32.424,276.612 32.562,276.927 32.684 C 277.242 32.806,277.500 32.850,277.500 32.782 C 277.500 32.713,277.655 32.786,277.845 32.943 C 278.034 33.100,278.245 33.218,278.313 33.204 C 278.671 33.130,281.875 34.603,281.875 34.841 C 281.875 34.928,282.016 35.000,282.188 35.000 C 282.359 35.000,282.500 35.094,282.500 35.208 C 282.500 35.323,282.641 35.417,282.813 35.417 C 282.984 35.417,283.125 35.510,283.125 35.625 C 283.125 35.740,283.269 35.833,283.444 35.833 C 283.620 35.833,283.817 35.974,283.883 36.146 C 283.949 36.318,284.101 36.458,284.222 36.458 C 284.502 36.458,287.292 39.256,287.292 39.537 C 287.292 39.652,287.432 39.801,287.604 39.867 C 287.776 39.933,287.917 40.120,287.917 40.284 C 287.917 40.447,288.037 40.626,288.183 40.683 C 288.390 40.762,290.437 44.520,290.535 45.000 C 290.546 45.057,290.664 45.364,290.796 45.683 C 291.044 46.281,291.095 46.477,291.462 48.229 C 291.820 49.936,291.866 50.384,292.008 53.556 C 292.083 55.226,292.079 56.937,292.000 57.358 L 291.856 58.125 199.995 58.125 L 108.133 58.125 108.000 57.597 C 107.856 57.022,108.027 50.507,108.199 50.000 C 108.258 49.828,108.361 49.186,108.428 48.573 C 108.494 47.960,108.644 47.281,108.761 47.063 C 108.878 46.845,108.911 46.667,108.836 46.667 C 108.761 46.667,108.816 46.526,108.958 46.354 C 109.101 46.182,109.148 46.042,109.063 46.042 C 108.977 46.042,109.024 45.901,109.167 45.729 C 109.309 45.557,109.364 45.417,109.289 45.417 C 109.214 45.417,109.269 45.206,109.412 44.948 C 109.556 44.690,109.679 44.432,109.687 44.375 C 109.736 44.002,110.530 42.500,110.677 42.500 C 110.777 42.500,110.800 42.406,110.729 42.292 C 110.658 42.177,110.700 42.083,110.821 42.083 C 110.942 42.083,111.042 41.943,111.042 41.771 C 111.042 41.599,111.135 41.458,111.250 41.458 C 111.365 41.458,111.458 41.318,111.458 41.146 C 111.458 40.974,111.552 40.833,111.667 40.833 C 111.781 40.833,111.875 40.690,111.875 40.514 C 111.875 40.339,112.016 40.141,112.188 40.075 C 112.359 40.009,112.500 39.868,112.500 39.762 C 112.500 39.511,115.763 36.250,116.014 36.250 C 116.119 36.250,116.259 36.109,116.325 35.938 C 116.391 35.766,116.589 35.625,116.764 35.625 C 116.940 35.625,117.083 35.531,117.083 35.417 C 117.083 35.302,117.216 35.208,117.378 35.208 C 117.541 35.208,117.705 35.138,117.743 35.051 C 117.829 34.857,121.184 33.222,121.927 33.013 C 122.216 32.931,122.291 32.917,122.344 32.931 C 122.372 32.939,122.677 32.837,123.021 32.704 C 123.832 32.391,124.256 32.298,125.521 32.152 C 126.094 32.087,126.602 31.996,126.651 31.952 C 126.821 31.798,274.482 31.984,275.000 32.139 M307.033 69.964 C 307.240 70.096,307.284 72.787,307.241 82.722 L 307.188 95.313 200.117 95.365 C 114.597 95.407,93.012 95.365,92.880 95.156 C 92.789 95.013,92.713 89.294,92.712 82.448 L 92.708 70.000 195.677 69.948 C 252.310 69.919,300.474 69.874,302.708 69.847 C 304.943 69.820,306.889 69.873,307.033 69.964 M293.649 108.698 C 293.593 109.471,293.496 110.620,293.435 111.250 C 293.222 113.446,293.002 115.893,292.826 118.021 C 292.769 118.708,292.669 119.786,292.603 120.417 C 292.537 121.047,292.444 122.031,292.396 122.604 C 292.229 124.609,292.060 126.570,291.975 127.500 C 291.800 129.429,291.639 131.172,291.563 131.979 C 291.520 132.438,291.434 133.469,291.371 134.271 C 291.309 135.073,291.204 136.245,291.139 136.875 C 291.075 137.505,290.983 138.490,290.936 139.063 C 290.889 139.635,290.803 140.620,290.745 141.250 C 290.686 141.880,290.588 143.005,290.526 143.750 C 290.417 145.075,290.279 146.560,290.111 148.229 C 290.064 148.688,289.971 149.719,289.904 150.521 C 289.836 151.323,289.744 152.354,289.700 152.813 C 289.655 153.271,289.563 154.349,289.494 155.208 C 289.425 156.068,289.327 157.193,289.276 157.708 C 289.225 158.224,289.129 159.302,289.061 160.104 C 288.994 160.906,288.898 161.984,288.847 162.500 C 288.587 165.174,288.544 165.646,288.232 169.375 C 288.170 170.120,288.077 171.151,288.026 171.667 C 287.845 173.497,287.663 175.528,287.634 176.042 L 287.604 176.563 200.017 176.563 L 112.430 176.563 112.370 176.042 C 112.307 175.496,112.141 173.679,111.962 171.563 C 111.904 170.875,111.816 169.891,111.768 169.375 C 111.719 168.859,111.627 167.875,111.563 167.188 C 111.499 166.500,111.403 165.469,111.349 164.896 C 111.193 163.235,110.963 160.646,110.728 157.917 C 110.576 156.144,110.467 154.930,110.109 151.042 C 110.061 150.526,109.967 149.448,109.899 148.646 C 109.747 146.840,109.581 144.951,109.478 143.854 C 109.401 143.034,109.234 141.215,109.066 139.375 C 109.019 138.859,108.929 137.828,108.866 137.083 C 108.802 136.339,108.700 135.214,108.638 134.583 C 108.576 133.953,108.485 132.922,108.435 132.292 C 108.385 131.661,108.295 130.630,108.235 130.000 C 108.175 129.370,108.076 128.292,108.015 127.604 C 107.954 126.917,107.865 125.932,107.817 125.417 C 107.770 124.901,107.678 123.870,107.614 123.125 C 107.550 122.380,107.457 121.349,107.407 120.833 C 107.265 119.375,107.057 117.074,106.973 116.042 C 106.858 114.618,106.675 112.517,106.566 111.354 C 106.512 110.781,106.416 109.633,106.352 108.802 L 106.237 107.292 199.995 107.292 L 293.753 107.292 293.649 108.698 M286.458 188.975 C 286.458 189.214,286.226 191.956,285.942 195.069 C 285.410 200.895,284.749 208.277,281.881 240.417 C 277.394 290.700,277.933 284.651,275.629 310.625 C 274.709 320.995,273.906 329.784,273.844 330.156 L 273.731 330.833 200.003 330.833 L 126.276 330.833 126.157 329.948 C 126.091 329.461,125.332 321.141,124.470 311.458 C 123.608 301.776,122.528 289.682,122.071 284.583 C 121.614 279.484,120.678 269.031,119.991 261.354 C 119.304 253.677,118.320 242.708,117.804 236.979 C 117.289 231.250,116.633 223.938,116.346 220.729 C 116.059 217.521,115.311 209.178,114.683 202.188 C 114.055 195.199,113.542 189.270,113.542 189.011 L 113.542 188.542 200.000 188.542 L 286.458 188.542 286.458 188.975 M272.588 343.698 C 272.579 344.242,272.497 344.855,272.406 345.060 C 272.315 345.265,272.299 345.798,272.371 346.245 C 272.448 346.728,272.412 347.113,272.283 347.193 C 272.164 347.266,272.067 347.811,272.068 348.403 C 272.070 350.337,271.980 351.558,271.815 351.815 C 271.725 351.953,271.653 352.516,271.653 353.065 C 271.654 354.741,271.539 356.127,271.365 356.517 C 271.275 356.721,271.256 357.166,271.324 357.506 C 271.400 357.888,271.361 358.125,271.222 358.125 C 271.085 358.125,271.048 358.330,271.127 358.646 C 271.209 358.970,271.170 359.167,271.023 359.167 C 270.894 359.167,270.843 359.307,270.909 359.479 C 270.975 359.651,270.928 359.792,270.805 359.792 C 270.681 359.792,270.634 359.932,270.700 360.104 C 270.766 360.276,270.719 360.417,270.596 360.417 C 270.473 360.417,270.428 360.562,270.496 360.740 C 270.577 360.951,270.537 361.012,270.379 360.914 C 270.216 360.814,270.182 360.882,270.275 361.122 C 270.367 361.363,270.333 361.431,270.171 361.331 C 270.004 361.228,269.976 361.303,270.080 361.574 C 270.163 361.790,270.163 361.900,270.082 361.818 C 269.865 361.601,269.324 362.458,269.499 362.741 C 269.589 362.886,269.556 362.925,269.418 362.839 C 269.213 362.712,268.930 363.040,268.718 363.646 C 268.679 363.760,268.589 363.835,268.520 363.812 C 268.346 363.754,267.105 365.058,267.093 365.313 C 267.088 365.427,266.990 365.533,266.875 365.547 C 266.760 365.561,266.567 365.585,266.446 365.599 C 266.325 365.613,266.285 365.721,266.357 365.838 C 266.430 365.956,266.412 366.039,266.318 366.022 C 265.892 365.948,265.612 366.060,265.732 366.255 C 265.805 366.373,265.787 366.448,265.693 366.422 C 265.402 366.344,264.583 366.684,264.583 366.883 C 264.583 366.986,264.427 367.010,264.237 366.937 C 264.005 366.848,263.940 366.884,264.039 367.046 C 264.137 367.203,264.076 367.244,263.865 367.163 C 263.687 367.095,263.542 367.140,263.542 367.263 C 263.542 367.386,263.401 367.433,263.229 367.367 C 263.057 367.301,262.917 367.342,262.917 367.458 C 262.917 367.574,262.729 367.620,262.500 367.560 C 262.271 367.500,262.083 367.554,262.083 367.679 C 262.083 367.818,261.851 367.860,261.484 367.786 C 261.143 367.718,260.823 367.765,260.742 367.896 C 260.640 368.062,243.873 368.125,200.000 368.125 C 156.127 368.125,139.360 368.062,139.258 367.896 C 139.177 367.765,138.857 367.718,138.516 367.786 C 138.149 367.860,137.917 367.818,137.917 367.679 C 137.917 367.554,137.729 367.500,137.500 367.560 C 137.271 367.620,137.083 367.574,137.083 367.458 C 137.083 367.342,136.943 367.301,136.771 367.367 C 136.599 367.433,136.458 367.386,136.458 367.263 C 136.458 367.140,136.318 367.093,136.146 367.159 C 135.974 367.225,135.833 367.199,135.833 367.102 C 135.833 366.901,134.569 366.331,134.307 366.414 C 134.213 366.444,134.205 366.357,134.290 366.220 C 134.394 366.051,134.334 366.013,134.103 366.101 C 133.916 366.173,133.699 366.128,133.620 366.000 C 133.529 365.852,133.582 365.823,133.770 365.921 C 133.931 366.004,133.885 365.928,133.667 365.751 C 133.450 365.575,133.190 365.481,133.089 365.543 C 132.989 365.605,132.932 365.572,132.964 365.470 C 133.031 365.250,131.449 363.672,131.146 363.656 C 131.031 363.651,130.926 363.529,130.911 363.385 C 130.897 363.242,130.874 363.026,130.859 362.904 C 130.845 362.783,130.737 362.743,130.620 362.816 C 130.502 362.888,130.420 362.870,130.436 362.776 C 130.509 362.356,130.400 362.069,130.211 362.186 C 130.088 362.262,130.060 362.168,130.142 361.956 C 130.234 361.715,130.200 361.647,130.038 361.747 C 129.875 361.848,129.841 361.780,129.934 361.539 C 130.026 361.298,129.992 361.230,129.829 361.331 C 129.667 361.431,129.633 361.363,129.725 361.122 C 129.812 360.898,129.781 360.815,129.642 360.901 C 129.521 360.976,129.426 360.921,129.431 360.779 C 129.456 360.081,129.356 359.779,129.144 359.910 C 128.989 360.006,128.960 359.907,129.054 359.609 C 129.132 359.366,129.108 359.167,129.001 359.167 C 128.895 359.167,128.853 358.932,128.907 358.646 C 128.964 358.348,128.910 358.125,128.779 358.125 C 128.638 358.125,128.599 357.890,128.676 357.506 C 128.744 357.166,128.725 356.721,128.635 356.517 C 128.461 356.127,128.346 354.741,128.347 353.065 C 128.347 352.516,128.275 351.953,128.185 351.815 C 128.020 351.558,127.930 350.337,127.932 348.403 C 127.933 347.811,127.836 347.266,127.717 347.193 C 127.588 347.113,127.552 346.728,127.629 346.245 C 127.701 345.798,127.685 345.265,127.594 345.060 C 127.503 344.855,127.421 344.242,127.412 343.698 L 127.396 342.709 200.000 342.709 L 272.604 342.709 272.588 343.698 " stroke="none" fill="#442404" fill-rule="evenodd"></path><path id="path4" d="M144.323 70.156 C 172.654 70.185,219.013 70.185,247.344 70.156 C 275.674 70.127,252.495 70.103,195.833 70.103 C 139.172 70.103,115.992 70.127,144.323 70.156 M306.825 70.154 C 307.031 70.300,307.075 72.962,307.033 82.722 L 306.979 95.104 200.117 95.156 C 114.764 95.198,93.221 95.156,93.089 94.948 C 92.970 94.762,92.922 94.792,92.920 95.052 C 92.917 95.399,98.114 95.415,200.052 95.365 L 307.188 95.313 307.188 82.726 C 307.188 71.714,307.148 70.128,306.875 70.054 C 306.642 69.990,306.629 70.015,306.825 70.154 M156.510 188.698 C 180.086 188.727,218.664 188.727,242.240 188.698 C 265.815 188.669,246.526 188.645,199.375 188.645 C 152.224 188.645,132.935 188.669,156.510 188.698 M153.594 201.406 C 159.523 201.437,169.227 201.437,175.156 201.406 C 181.086 201.375,176.234 201.350,164.375 201.350 C 152.516 201.350,147.664 201.375,153.594 201.406 M192.240 201.406 C 193.643 201.442,195.940 201.442,197.344 201.406 C 198.747 201.370,197.599 201.340,194.792 201.340 C 191.984 201.340,190.836 201.370,192.240 201.406 M225.052 201.406 C 230.982 201.437,240.685 201.437,246.615 201.406 C 252.544 201.375,247.693 201.350,235.833 201.350 C 223.974 201.350,219.122 201.375,225.052 201.406 M153.506 244.531 C 159.501 244.562,169.251 244.562,175.172 244.531 C 181.093 244.500,176.188 244.475,164.271 244.475 C 152.354 244.475,147.510 244.501,153.506 244.531 M225.052 244.531 C 230.982 244.562,240.685 244.562,246.615 244.531 C 252.544 244.500,247.693 244.475,235.833 244.475 C 223.974 244.475,219.122 244.500,225.052 244.531 M151.345 254.012 C 151.289 254.158,151.270 256.854,151.302 260.003 L 151.361 265.729 151.410 259.844 L 151.458 253.958 164.163 253.958 L 176.869 253.958 176.929 259.740 L 176.989 265.521 176.984 259.688 L 176.979 253.854 164.213 253.800 C 154.036 253.758,151.426 253.801,151.345 254.012 M230.365 255.573 C 233.143 255.606,237.690 255.606,240.469 255.573 C 243.247 255.540,240.974 255.513,235.417 255.513 C 229.859 255.513,227.586 255.540,230.365 255.573 M234.010 267.448 C 238.221 267.479,245.112 267.479,249.323 267.448 C 253.534 267.416,250.089 267.391,241.667 267.391 C 233.245 267.391,229.799 267.416,234.010 267.448 M199.127 268.698 C 200.767 268.733,203.392 268.733,204.961 268.697 C 206.529 268.662,205.188 268.633,201.979 268.633 C 198.771 268.633,197.487 268.662,199.127 268.698 M205.581 303.488 C 206.302 303.529,207.427 303.528,208.081 303.487 C 208.735 303.446,208.146 303.412,206.771 303.413 C 205.396 303.413,204.860 303.447,205.581 303.488 M163.298 330.781 C 183.617 330.811,216.805 330.811,237.048 330.781 C 257.291 330.752,240.667 330.728,200.104 330.728 C 159.542 330.728,142.979 330.752,163.298 330.781 " stroke="none" fill="#ab9357" fill-rule="evenodd"></path></g></svg>