<svg id="svg" version="1.1" xmlns="http://www.w3.org/2000/svg" xmlns:xlink="http://www.w3.org/1999/xlink" width="400" height="400" viewBox="0, 0, 400,400"><g id="svgg"><path id="path0" d="M125.521 20.234 C 113.139 21.409,102.203 30.097,98.036 42.069 C 96.718 45.854,96.435 47.661,96.310 53.058 L 96.198 57.886 90.755 57.954 C 84.621 58.029,84.183 58.123,82.611 59.694 C 80.809 61.496,80.938 59.735,80.938 82.708 L 80.938 103.021 81.396 103.878 C 82.101 105.196,82.780 105.900,83.993 106.572 L 85.104 107.188 89.635 107.254 C 94.098 107.320,94.167 107.328,94.260 107.775 C 94.312 108.025,94.451 109.401,94.569 110.833 C 94.686 112.266,96.146 128.578,97.814 147.083 C 99.481 165.589,103.934 215.323,107.709 257.604 C 111.485 299.885,114.806 337.010,115.091 340.104 C 115.375 343.198,115.850 348.542,116.145 351.979 C 116.441 355.417,116.822 359.073,116.992 360.104 C 118.744 370.723,127.131 378.593,137.961 379.779 C 140.767 380.086,259.203 380.088,262.039 379.781 C 272.840 378.611,281.308 370.644,283.009 360.050 C 283.188 358.934,283.760 353.146,284.279 347.188 C 284.798 341.229,286.205 325.385,287.406 311.979 C 288.607 298.573,290.102 281.885,290.727 274.896 C 292.841 251.293,295.628 220.178,296.773 207.396 C 297.399 200.406,298.567 187.328,299.367 178.333 C 302.898 138.669,305.623 108.197,305.674 107.813 C 305.727 107.414,305.926 107.391,310.313 107.292 L 314.896 107.188 316.007 106.572 C 317.220 105.900,317.899 105.196,318.604 103.878 L 319.063 103.021 319.063 82.708 C 319.063 59.796,319.182 61.487,317.445 59.750 C 315.828 58.134,315.350 58.029,309.247 57.954 L 303.807 57.886 303.695 53.370 C 303.244 35.224,291.344 21.905,274.078 20.222 C 271.294 19.950,128.387 19.962,125.521 20.234 M276.354 32.467 C 286.159 35.288,291.612 42.661,291.826 53.385 L 291.916 57.917 199.916 57.917 L 107.917 57.917 107.918 55.156 C 107.926 42.598,114.511 33.930,125.423 32.112 C 126.097 31.999,156.838 31.935,200.625 31.955 L 274.688 31.988 276.354 32.467 M307.292 82.742 L 307.292 95.691 302.570 95.554 C 299.974 95.478,251.693 95.417,195.279 95.417 L 92.708 95.417 92.708 82.604 L 92.708 69.792 200.000 69.792 L 307.292 69.792 307.292 82.742 M293.853 108.073 C 293.792 108.503,293.416 112.604,293.017 117.188 C 292.618 121.771,292.197 126.505,292.082 127.708 C 291.967 128.911,291.309 136.224,290.620 143.958 C 289.010 162.024,288.619 166.393,288.118 171.912 C 287.893 174.396,287.708 176.482,287.708 176.547 C 287.708 176.613,248.248 176.667,200.020 176.667 L 112.331 176.667 112.206 175.677 C 112.137 175.133,110.772 159.969,109.173 141.979 C 107.574 123.990,106.212 108.826,106.146 108.281 L 106.027 107.292 199.995 107.292 L 293.963 107.292 293.853 108.073 M286.589 189.427 C 286.520 189.914,286.230 192.984,285.945 196.250 C 285.660 199.516,285.094 205.891,284.689 210.417 C 284.283 214.943,283.717 221.318,283.430 224.583 C 283.144 227.849,282.679 233.052,282.398 236.146 C 282.116 239.240,281.599 245.005,281.249 248.958 C 280.899 252.911,280.289 259.755,279.893 264.167 C 279.497 268.578,278.848 275.844,278.450 280.313 C 277.792 287.693,276.934 297.311,275.829 309.688 C 275.604 312.208,275.091 317.916,274.689 322.370 C 274.287 326.825,273.958 330.552,273.958 330.652 C 273.958 330.755,241.976 330.833,200.000 330.833 C 133.771 330.833,126.042 330.800,126.042 330.515 C 126.042 330.340,125.575 325.019,125.005 318.692 C 124.435 312.364,123.402 300.859,122.711 293.125 C 122.019 285.391,121.221 276.484,120.937 273.333 C 119.488 257.248,116.896 228.331,115.316 210.625 C 114.339 199.682,113.483 190.237,113.413 189.635 L 113.285 188.542 200.000 188.542 L 286.714 188.542 286.589 189.427 M142.708 222.917 L 142.708 244.375 164.271 244.375 L 185.833 244.375 185.833 222.917 L 185.833 201.458 164.271 201.458 L 142.708 201.458 142.708 222.917 M189.792 207.292 L 189.792 213.125 194.792 213.125 L 199.792 213.125 199.792 207.292 L 199.792 201.458 194.792 201.458 L 189.792 201.458 189.792 207.292 M214.167 222.917 L 214.167 244.375 235.729 244.375 L 257.292 244.375 257.292 222.917 L 257.292 201.458 235.729 201.458 L 214.167 201.458 214.167 222.917 M174.063 222.917 L 174.063 232.604 164.323 232.658 L 154.583 232.712 154.583 222.917 L 154.583 213.121 164.323 213.175 L 174.063 213.229 174.063 222.917 M245.625 222.917 L 245.625 232.708 235.833 232.708 L 226.042 232.708 226.042 222.917 L 226.042 213.125 235.833 213.125 L 245.625 213.125 245.625 222.917 M160.833 222.917 L 160.833 226.250 164.271 226.250 L 167.708 226.250 167.708 222.917 L 167.708 219.583 164.271 219.583 L 160.833 219.583 160.833 222.917 M232.500 222.917 L 232.500 226.250 235.833 226.250 L 239.167 226.250 239.167 222.917 L 239.167 219.583 235.833 219.583 L 232.500 219.583 232.500 222.917 M196.250 247.500 L 196.250 268.542 202.188 268.542 L 208.125 268.542 208.125 247.500 L 208.125 226.458 202.188 226.458 L 196.250 226.458 196.250 247.500 M245.625 253.019 L 245.625 255.413 235.573 255.467 L 225.521 255.521 225.466 261.406 L 225.410 267.292 241.351 267.292 L 257.292 267.292 257.292 258.958 L 257.292 250.625 251.458 250.625 L 245.625 250.625 245.625 253.019 M151.382 254.122 C 151.326 254.212,151.297 256.814,151.317 259.903 L 151.354 265.521 164.105 265.575 L 176.856 265.628 176.918 259.950 C 176.951 256.826,176.950 254.201,176.915 254.115 C 176.829 253.905,151.511 253.913,151.382 254.122 M142.639 272.222 C 142.563 272.299,142.500 282.002,142.500 293.785 L 142.500 315.208 164.063 315.208 L 185.625 315.208 185.625 293.646 L 185.625 272.083 164.201 272.083 C 152.418 272.083,142.715 272.146,142.639 272.222 M214.306 272.222 C 214.229 272.299,214.167 282.002,214.167 293.785 L 214.167 315.208 235.729 315.208 L 257.292 315.208 257.292 293.646 L 257.292 272.083 235.868 272.083 C 224.085 272.083,214.382 272.146,214.306 272.222 M192.500 296.667 L 192.500 315.208 200.833 315.208 L 209.167 315.208 209.167 309.382 L 209.167 303.555 206.823 303.496 L 204.479 303.438 204.425 290.781 L 204.372 278.125 198.436 278.125 L 192.500 278.125 192.500 296.667 M173.908 293.698 L 173.854 303.438 164.115 303.492 L 154.375 303.546 154.375 293.752 L 154.375 283.958 164.169 283.958 L 173.962 283.958 173.908 293.698 M245.575 293.698 L 245.521 303.438 235.781 303.492 L 226.042 303.546 226.042 293.752 L 226.042 283.958 235.835 283.958 L 245.629 283.958 245.575 293.698 M161.458 293.750 L 161.458 297.083 164.792 297.083 L 168.125 297.083 168.125 293.750 L 168.125 290.417 164.792 290.417 L 161.458 290.417 161.458 293.750 M232.917 293.750 L 232.917 297.083 236.250 297.083 L 239.583 297.083 239.583 293.750 L 239.583 290.417 236.250 290.417 L 232.917 290.417 232.917 293.750 M272.821 343.802 C 272.752 344.404,272.414 347.984,272.070 351.759 C 271.161 361.734,270.022 364.217,265.185 366.767 C 262.389 368.240,267.718 368.134,199.439 368.075 L 137.813 368.021 136.458 367.537 C 130.498 365.407,128.901 362.426,127.919 351.600 C 127.574 347.798,127.237 344.242,127.168 343.698 L 127.044 342.708 199.995 342.708 L 272.947 342.708 272.821 343.802 " stroke="none" fill="#040404" fill-rule="evenodd"></path><path id="path1" d="M163.906 19.948 C 183.758 19.977,216.242 19.977,236.094 19.948 C 255.945 19.919,239.703 19.895,200.000 19.895 C 160.297 19.895,144.055 19.919,163.906 19.948 M124.792 32.396 C 114.316 34.524,108.125 42.861,108.125 54.839 L 108.125 57.917 199.948 57.865 L 291.771 57.813 291.743 53.958 C 291.665 43.155,286.466 35.840,276.667 32.747 L 274.896 32.188 200.521 32.154 C 139.628 32.127,125.900 32.171,124.792 32.396 M106.346 108.594 C 106.415 109.195,107.267 118.641,108.240 129.583 C 109.213 140.526,110.283 152.526,110.618 156.250 C 110.953 159.974,111.471 165.833,111.769 169.271 C 112.068 172.708,112.356 175.732,112.410 175.990 L 112.508 176.458 199.995 176.458 L 287.481 176.458 287.584 175.781 C 287.641 175.409,287.739 174.495,287.802 173.750 C 287.946 172.058,288.844 161.997,291.249 135.104 C 292.285 123.531,293.224 112.984,293.337 111.667 C 293.450 110.349,293.595 108.872,293.659 108.385 L 293.776 107.500 199.998 107.500 L 106.220 107.500 106.346 108.594 M154.583 222.917 L 154.583 232.500 164.271 232.500 L 173.958 232.500 173.958 222.917 L 173.958 213.333 164.271 213.333 L 154.583 213.333 154.583 222.917 M226.250 222.917 L 226.250 232.500 235.833 232.500 L 245.417 232.500 245.417 222.917 L 245.417 213.333 235.833 213.333 L 226.250 213.333 226.250 222.917 M167.708 222.917 L 167.708 226.458 164.271 226.458 L 160.833 226.458 160.833 222.917 L 160.833 219.375 164.271 219.375 L 167.708 219.375 167.708 222.917 M239.328 222.969 L 239.385 226.458 235.838 226.458 L 232.292 226.458 232.292 223.056 C 232.292 221.184,232.356 219.588,232.436 219.509 C 232.515 219.430,234.085 219.391,235.925 219.422 L 239.271 219.479 239.328 222.969 M154.583 293.750 L 154.583 303.333 164.167 303.333 L 173.750 303.333 173.750 293.750 L 173.750 284.167 164.167 284.167 L 154.583 284.167 154.583 293.750 M226.250 293.750 L 226.250 303.333 235.833 303.333 L 245.417 303.333 245.417 293.750 L 245.417 284.167 235.833 284.167 L 226.250 284.167 226.250 293.750 M168.286 293.698 L 168.229 297.188 164.792 297.188 L 161.354 297.188 161.297 293.698 L 161.240 290.208 164.792 290.208 L 168.343 290.208 168.286 293.698 M239.792 293.755 L 239.792 297.302 236.302 297.245 L 232.813 297.188 232.755 293.967 C 232.680 289.790,232.280 290.208,236.348 290.208 L 239.792 290.208 239.792 293.755 M127.294 343.073 C 127.313 344.634,128.830 358.927,129.052 359.645 C 130.132 363.140,132.854 366.004,136.363 367.340 L 137.604 367.813 200.000 367.813 L 262.396 367.813 263.829 367.239 C 267.331 365.837,269.852 363.118,270.927 359.583 C 271.183 358.744,272.683 344.816,272.706 343.073 C 272.707 342.987,239.990 342.917,200.000 342.917 C 160.010 342.917,127.293 342.987,127.294 343.073 M169.948 380.156 C 186.477 380.186,213.523 380.186,230.052 380.156 C 246.581 380.127,233.057 380.103,200.000 380.103 C 166.943 380.103,153.419 380.127,169.948 380.156 " stroke="none" fill="#fbf3c3" fill-rule="evenodd"></path><path id="path2" d="M96.090 51.875 C 96.090 52.276,96.133 52.440,96.185 52.240 C 96.238 52.039,96.238 51.711,96.185 51.510 C 96.133 51.310,96.090 51.474,96.090 51.875 M80.725 83.333 C 80.725 93.474,80.750 97.622,80.781 92.552 C 80.812 87.482,80.812 79.185,80.781 74.115 C 80.750 69.044,80.725 73.193,80.725 83.333 M319.266 83.333 C 319.266 93.474,319.292 97.622,319.323 92.552 C 319.354 87.482,319.354 79.185,319.323 74.115 C 319.292 69.044,319.266 73.193,319.266 83.333 M195.571 69.946 L 92.705 70.000 92.759 82.656 L 92.813 95.313 200.054 95.365 L 307.295 95.417 307.241 82.656 L 307.188 69.896 302.813 69.894 C 300.406 69.892,252.148 69.916,195.571 69.946 M153.073 107.448 C 178.883 107.477,221.117 107.477,246.927 107.448 C 272.737 107.419,251.620 107.395,200.000 107.395 C 148.380 107.395,127.263 107.419,153.073 107.448 M156.510 176.615 C 180.430 176.644,219.570 176.644,243.490 176.615 C 267.409 176.585,247.839 176.562,200.000 176.562 C 152.161 176.562,132.591 176.585,156.510 176.615 M142.600 222.917 C 142.600 234.891,142.625 239.789,142.656 233.802 C 142.687 227.815,142.687 218.018,142.656 212.031 C 142.625 206.044,142.600 210.943,142.600 222.917 M189.675 207.292 C 189.675 210.672,189.704 212.055,189.739 210.365 C 189.774 208.674,189.774 205.909,189.739 204.219 C 189.704 202.529,189.675 203.911,189.675 207.292 M199.884 207.292 C 199.884 210.672,199.912 212.055,199.947 210.365 C 199.982 208.674,199.982 205.909,199.947 204.219 C 199.912 202.529,199.884 203.911,199.884 207.292 M226.138 222.917 C 226.138 228.245,226.165 230.424,226.198 227.760 C 226.231 225.096,226.231 220.737,226.198 218.073 C 226.165 215.409,226.138 217.589,226.138 222.917 M163.073 219.530 C 163.904 219.569,165.263 219.569,166.094 219.530 C 166.924 219.490,166.245 219.458,164.583 219.458 C 162.922 219.458,162.242 219.490,163.073 219.530 M234.115 219.530 C 235.060 219.569,236.607 219.569,237.552 219.530 C 238.497 219.491,237.724 219.460,235.833 219.460 C 233.943 219.460,233.169 219.491,234.115 219.530 M196.142 247.500 C 196.142 259.245,196.167 264.049,196.198 258.177 C 196.229 252.305,196.229 242.695,196.198 236.823 C 196.167 230.951,196.142 235.755,196.142 247.500 M153.297 272.031 C 159.293 272.062,169.043 272.062,174.964 272.031 C 180.885 272.000,175.979 271.975,164.063 271.975 C 152.146 271.975,147.301 272.001,153.297 272.031 M225.052 272.031 C 230.982 272.062,240.685 272.062,246.615 272.031 C 252.544 272.000,247.693 271.975,235.833 271.975 C 223.974 271.975,219.122 272.000,225.052 272.031 M192.389 278.174 C 192.334 278.319,192.313 286.781,192.343 296.979 L 192.398 315.521 192.449 296.823 L 192.500 278.125 198.436 278.125 L 204.372 278.125 204.428 290.729 L 204.484 303.333 204.482 290.677 L 204.479 278.021 198.484 277.966 C 193.801 277.922,192.467 277.968,192.389 278.174 M154.471 293.750 C 154.471 299.078,154.498 301.258,154.531 298.594 C 154.564 295.930,154.564 291.570,154.531 288.906 C 154.498 286.242,154.471 288.422,154.471 293.750 M226.138 293.750 C 226.138 299.078,226.165 301.258,226.198 298.594 C 226.231 295.930,226.231 291.570,226.198 288.906 C 226.165 286.242,226.138 288.422,226.138 293.750 M163.073 297.238 C 164.018 297.277,165.565 297.277,166.510 297.238 C 167.456 297.200,166.682 297.168,164.792 297.168 C 162.901 297.168,162.128 297.200,163.073 297.238 M234.531 297.238 C 235.477 297.277,237.023 297.277,237.969 297.238 C 238.914 297.200,238.141 297.168,236.250 297.168 C 234.359 297.168,233.586 297.200,234.531 297.238 M209.259 309.375 C 209.259 312.755,209.287 314.138,209.322 312.448 C 209.357 310.758,209.357 307.992,209.322 306.302 C 209.287 304.612,209.259 305.995,209.259 309.375 M123.438 373.125 C 123.885 373.583,124.298 373.958,124.355 373.958 C 124.413 373.958,124.093 373.583,123.646 373.125 C 123.198 372.667,122.785 372.292,122.728 372.292 C 122.671 372.292,122.990 372.667,123.438 373.125 M276.341 373.177 L 275.729 373.854 276.406 373.242 C 277.037 372.672,277.179 372.500,277.018 372.500 C 276.982 372.500,276.678 372.805,276.341 373.177 " stroke="none" fill="#6da3bb" fill-rule="evenodd"></path><path id="path3" d="M105.625 29.479 C 105.119 29.995,104.752 30.417,104.809 30.417 C 104.866 30.417,105.327 29.995,105.833 29.479 C 106.339 28.964,106.707 28.542,106.649 28.542 C 106.592 28.542,106.131 28.964,105.625 29.479 M164.115 32.031 C 183.852 32.061,216.148 32.061,235.885 32.031 C 255.622 32.002,239.474 31.978,200.000 31.978 C 160.526 31.978,144.378 32.002,164.115 32.031 M285.625 38.021 C 286.014 38.422,286.379 38.750,286.436 38.750 C 286.493 38.750,286.222 38.422,285.833 38.021 C 285.445 37.620,285.080 37.292,285.022 37.292 C 284.965 37.292,285.236 37.620,285.625 38.021 M303.846 54.375 L 303.854 57.813 308.698 57.818 L 313.542 57.824 308.755 57.762 L 303.969 57.701 303.903 54.319 L 303.838 50.938 303.846 54.375 M88.802 57.864 C 90.148 57.900,92.352 57.900,93.698 57.864 C 95.044 57.828,93.943 57.798,91.250 57.798 C 88.557 57.798,87.456 57.828,88.802 57.864 M113.656 188.733 C 113.591 188.839,113.822 192.097,114.171 195.973 C 114.519 199.849,115.459 210.333,116.259 219.271 C 117.060 228.208,117.946 238.099,118.229 241.250 C 120.134 262.433,122.127 284.675,123.747 302.813 C 124.780 314.385,125.766 325.348,125.938 327.174 C 126.109 329.001,126.250 330.571,126.250 330.664 C 126.250 330.757,159.432 330.833,199.987 330.833 L 273.724 330.833 273.842 329.948 C 273.906 329.461,274.758 320.016,275.735 308.958 C 276.712 297.901,277.885 284.682,278.342 279.583 C 278.799 274.484,279.503 266.609,279.906 262.083 C 280.309 257.557,280.822 251.839,281.045 249.375 C 281.269 246.911,281.876 240.115,282.395 234.271 C 282.915 228.427,283.570 221.068,283.852 217.917 C 285.505 199.459,286.259 190.805,286.304 189.792 L 286.354 188.646 200.065 188.593 C 147.505 188.561,113.729 188.616,113.656 188.733 M186.042 222.917 L 186.042 244.583 164.271 244.583 L 142.500 244.583 142.500 222.917 L 142.500 201.250 164.271 201.250 L 186.042 201.250 186.042 222.917 M200.000 207.292 L 200.000 213.333 194.792 213.333 L 189.583 213.333 189.583 207.292 L 189.583 201.250 194.792 201.250 L 200.000 201.250 200.000 207.292 M257.500 222.917 L 257.500 244.583 235.833 244.583 L 214.167 244.583 214.167 222.917 L 214.167 201.250 235.833 201.250 L 257.500 201.250 257.500 222.917 M208.125 247.500 L 208.125 268.750 202.083 268.750 L 196.042 268.750 196.042 247.500 L 196.042 226.250 202.083 226.250 L 208.125 226.250 208.125 247.500 M257.500 258.958 L 257.500 267.500 241.458 267.500 L 225.417 267.500 225.417 261.458 L 225.417 255.417 235.417 255.417 L 245.417 255.417 245.417 252.917 L 245.417 250.417 251.458 250.417 L 257.500 250.417 257.500 258.958 M177.083 259.792 L 177.083 265.833 164.167 265.833 L 151.250 265.833 151.250 259.792 L 151.250 253.750 164.167 253.750 L 177.083 253.750 177.083 259.792 M185.782 293.698 L 185.835 315.417 164.168 315.417 L 142.500 315.417 142.500 293.645 L 142.500 271.873 164.115 271.926 L 185.729 271.979 185.782 293.698 M257.449 293.698 L 257.502 315.417 235.834 315.417 L 214.167 315.417 214.167 293.785 C 214.167 281.887,214.230 272.090,214.307 272.013 C 214.383 271.936,224.110 271.897,235.921 271.926 L 257.396 271.979 257.449 293.698 M204.533 290.677 L 204.587 303.333 206.981 303.333 L 209.375 303.333 209.375 309.375 L 209.375 315.417 200.833 315.417 L 192.292 315.417 192.292 296.806 C 192.292 286.569,192.356 278.131,192.434 278.052 C 192.512 277.974,195.254 277.935,198.527 277.966 L 204.479 278.021 204.533 290.677 M159.323 284.114 C 161.987 284.147,166.346 284.147,169.010 284.114 C 171.674 284.081,169.495 284.054,164.167 284.054 C 158.839 284.054,156.659 284.081,159.323 284.114 M230.990 284.114 C 233.654 284.147,238.013 284.147,240.677 284.114 C 243.341 284.081,241.161 284.054,235.833 284.054 C 230.505 284.054,228.326 284.081,230.990 284.114 M232.793 293.750 C 232.793 295.641,232.825 296.414,232.863 295.469 C 232.902 294.523,232.902 292.977,232.863 292.031 C 232.825 291.086,232.793 291.859,232.793 293.750 M164.115 342.865 C 183.852 342.894,216.148 342.894,235.885 342.865 C 255.622 342.835,239.474 342.811,200.000 342.811 C 160.526 342.811,144.378 342.835,164.115 342.865 M169.948 368.073 C 186.477 368.102,213.523 368.102,230.052 368.073 C 246.581 368.043,233.057 368.019,200.000 368.019 C 166.943 368.019,153.419 368.043,169.948 368.073 " stroke="none" fill="#abccdb" fill-rule="evenodd"></path><path id="path4" d="M126.302 20.144 C 126.503 20.196,126.831 20.196,127.031 20.144 C 127.232 20.091,127.068 20.048,126.667 20.048 C 126.266 20.048,126.102 20.091,126.302 20.144 M272.969 20.144 C 273.169 20.196,273.497 20.196,273.698 20.144 C 273.898 20.091,273.734 20.048,273.333 20.048 C 272.932 20.048,272.768 20.091,272.969 20.144 M106.758 28.594 L 106.146 29.271 106.823 28.659 C 107.195 28.322,107.500 28.018,107.500 27.982 C 107.500 27.821,107.328 27.963,106.758 28.594 M294.063 29.583 C 294.743 30.271,295.346 30.833,295.404 30.833 C 295.461 30.833,294.951 30.271,294.271 29.583 C 293.591 28.896,292.987 28.333,292.930 28.333 C 292.872 28.333,293.382 28.896,294.063 29.583 M104.572 30.781 L 103.854 31.563 104.635 30.845 C 105.065 30.450,105.417 30.098,105.417 30.063 C 105.417 29.904,105.240 30.054,104.572 30.781 M114.053 37.969 L 113.229 38.854 114.115 38.031 C 114.938 37.265,115.096 37.083,114.938 37.083 C 114.904 37.083,114.506 37.482,114.053 37.969 M303.590 50.000 C 303.590 50.401,303.633 50.565,303.685 50.365 C 303.738 50.164,303.738 49.836,303.685 49.635 C 303.633 49.435,303.590 49.599,303.590 50.000 M108.001 54.792 C 108.001 56.568,108.032 57.294,108.072 56.406 C 108.111 55.518,108.111 54.065,108.072 53.177 C 108.032 52.289,108.001 53.016,108.001 54.792 M96.123 55.208 C 96.123 56.755,96.156 57.388,96.196 56.615 C 96.236 55.841,96.236 54.576,96.196 53.802 C 96.156 53.029,96.123 53.661,96.123 55.208 M144.132 69.948 C 172.472 69.977,218.784 69.977,247.048 69.948 C 275.312 69.919,252.125 69.895,195.521 69.895 C 138.917 69.895,115.792 69.919,144.132 69.948 M302.552 95.572 C 303.440 95.611,304.893 95.611,305.781 95.572 C 306.669 95.532,305.943 95.501,304.167 95.501 C 302.391 95.501,301.664 95.532,302.552 95.572 M88.385 107.447 C 89.388 107.485,91.029 107.485,92.031 107.447 C 93.034 107.409,92.214 107.377,90.208 107.377 C 88.203 107.377,87.383 107.409,88.385 107.447 M305.697 107.613 C 305.629 107.790,305.632 107.993,305.703 108.065 C 305.775 108.136,305.833 108.040,305.833 107.852 C 305.833 107.549,306.272 107.502,309.635 107.448 L 313.438 107.386 309.629 107.339 C 306.359 107.298,305.803 107.337,305.697 107.613 M293.590 109.583 C 293.590 109.984,293.633 110.148,293.685 109.948 C 293.738 109.747,293.738 109.419,293.685 109.219 C 293.633 109.018,293.590 109.182,293.590 109.583 M106.507 112.292 C 106.507 112.693,106.550 112.857,106.602 112.656 C 106.654 112.456,106.654 112.128,106.602 111.927 C 106.550 111.727,106.507 111.891,106.507 112.292 M106.715 114.583 C 106.715 114.984,106.758 115.148,106.810 114.948 C 106.863 114.747,106.863 114.419,106.810 114.219 C 106.758 114.018,106.715 114.182,106.715 114.583 M292.965 116.667 C 292.965 117.068,293.008 117.232,293.060 117.031 C 293.113 116.831,293.113 116.503,293.060 116.302 C 293.008 116.102,292.965 116.266,292.965 116.667 M106.923 116.875 C 106.923 117.276,106.966 117.440,107.019 117.240 C 107.071 117.039,107.071 116.711,107.019 116.510 C 106.966 116.310,106.923 116.474,106.923 116.875 M292.340 123.542 C 292.340 123.943,292.383 124.107,292.435 123.906 C 292.488 123.706,292.488 123.378,292.435 123.177 C 292.383 122.977,292.340 123.141,292.340 123.542 M292.132 126.042 C 292.132 126.443,292.175 126.607,292.227 126.406 C 292.279 126.206,292.279 125.878,292.227 125.677 C 292.175 125.477,292.132 125.641,292.132 126.042 M107.757 126.250 C 107.757 126.651,107.800 126.815,107.852 126.615 C 107.904 126.414,107.904 126.086,107.852 125.885 C 107.800 125.685,107.757 125.849,107.757 126.250 M107.965 128.542 C 107.965 128.943,108.008 129.107,108.060 128.906 C 108.113 128.706,108.113 128.378,108.060 128.177 C 108.008 127.977,107.965 128.141,107.965 128.542 M291.715 130.625 C 291.715 131.026,291.758 131.190,291.810 130.990 C 291.863 130.789,291.863 130.461,291.810 130.260 C 291.758 130.060,291.715 130.224,291.715 130.625 M108.382 133.125 C 108.382 133.526,108.425 133.690,108.477 133.490 C 108.529 133.289,108.529 132.961,108.477 132.760 C 108.425 132.560,108.382 132.724,108.382 133.125 M291.298 135.208 C 291.298 135.609,291.341 135.773,291.394 135.573 C 291.446 135.372,291.446 135.044,291.394 134.844 C 291.341 134.643,291.298 134.807,291.298 135.208 M108.798 137.917 C 108.798 138.318,108.841 138.482,108.894 138.281 C 108.946 138.081,108.946 137.753,108.894 137.552 C 108.841 137.352,108.798 137.516,108.798 137.917 M290.882 139.792 C 290.882 140.193,290.925 140.357,290.977 140.156 C 291.029 139.956,291.029 139.628,290.977 139.427 C 290.925 139.227,290.882 139.391,290.882 139.792 M109.007 140.208 C 109.007 140.609,109.050 140.773,109.102 140.573 C 109.154 140.372,109.154 140.044,109.102 139.844 C 109.050 139.643,109.007 139.807,109.007 140.208 M290.673 142.292 C 290.673 142.693,290.716 142.857,290.769 142.656 C 290.821 142.456,290.821 142.128,290.769 141.927 C 290.716 141.727,290.673 141.891,290.673 142.292 M109.215 142.500 C 109.215 142.901,109.258 143.065,109.310 142.865 C 109.363 142.664,109.363 142.336,109.310 142.135 C 109.258 141.935,109.215 142.099,109.215 142.500 M109.423 144.792 C 109.423 145.193,109.466 145.357,109.519 145.156 C 109.571 144.956,109.571 144.628,109.519 144.427 C 109.466 144.227,109.423 144.391,109.423 144.792 M290.257 146.875 C 290.257 147.276,290.300 147.440,290.352 147.240 C 290.404 147.039,290.404 146.711,290.352 146.510 C 290.300 146.310,290.257 146.474,290.257 146.875 M109.632 147.083 C 109.632 147.484,109.675 147.648,109.727 147.448 C 109.779 147.247,109.779 146.919,109.727 146.719 C 109.675 146.518,109.632 146.682,109.632 147.083 M110.257 154.167 C 110.257 154.568,110.300 154.732,110.352 154.531 C 110.404 154.331,110.404 154.003,110.352 153.802 C 110.300 153.602,110.257 153.766,110.257 154.167 M110.465 156.458 C 110.465 156.859,110.508 157.023,110.560 156.823 C 110.613 156.622,110.613 156.294,110.560 156.094 C 110.508 155.893,110.465 156.057,110.465 156.458 M289.215 158.542 C 289.215 158.943,289.258 159.107,289.310 158.906 C 289.363 158.706,289.363 158.378,289.310 158.177 C 289.258 157.977,289.215 158.141,289.215 158.542 M288.382 167.917 C 288.382 168.318,288.425 168.482,288.477 168.281 C 288.529 168.081,288.529 167.753,288.477 167.552 C 288.425 167.352,288.382 167.516,288.382 167.917 M111.507 168.125 C 111.507 168.526,111.550 168.690,111.602 168.490 C 111.654 168.289,111.654 167.961,111.602 167.760 C 111.550 167.560,111.507 167.724,111.507 168.125 M111.715 170.417 C 111.715 170.818,111.758 170.982,111.810 170.781 C 111.863 170.581,111.863 170.253,111.810 170.052 C 111.758 169.852,111.715 170.016,111.715 170.417 M287.965 172.500 C 287.965 172.901,288.008 173.065,288.060 172.865 C 288.113 172.664,288.113 172.336,288.060 172.135 C 288.008 171.935,287.965 172.099,287.965 172.500 M100.882 182.292 C 100.882 182.693,100.925 182.857,100.977 182.656 C 101.029 182.456,101.029 182.128,100.977 181.927 C 100.925 181.727,100.882 181.891,100.882 182.292 M299.007 182.292 C 299.007 182.693,299.050 182.857,299.102 182.656 C 299.154 182.456,299.154 182.128,299.102 181.927 C 299.050 181.727,299.007 181.891,299.007 182.292 M113.382 189.167 C 113.382 189.568,113.425 189.732,113.477 189.531 C 113.529 189.331,113.529 189.003,113.477 188.802 C 113.425 188.602,113.382 188.766,113.382 189.167 M285.465 200.625 C 285.465 201.026,285.508 201.190,285.560 200.990 C 285.613 200.789,285.613 200.461,285.560 200.260 C 285.508 200.060,285.465 200.224,285.465 200.625 M114.423 200.833 C 114.423 201.234,114.466 201.398,114.519 201.198 C 114.571 200.997,114.571 200.669,114.519 200.469 C 114.466 200.268,114.423 200.432,114.423 200.833 M164.219 201.406 L 185.833 201.460 185.833 222.917 L 185.833 244.373 164.271 244.428 L 142.708 244.482 164.323 244.481 L 185.938 244.479 185.938 222.917 L 185.938 201.354 164.271 201.353 L 142.604 201.351 164.219 201.406 M192.240 201.406 C 193.643 201.442,195.940 201.442,197.344 201.406 C 198.747 201.370,197.599 201.340,194.792 201.340 C 191.984 201.340,190.836 201.370,192.240 201.406 M235.677 201.406 L 257.292 201.460 257.292 222.917 L 257.292 244.373 235.677 244.427 L 214.063 244.481 235.781 244.532 L 257.500 244.583 257.500 222.917 L 257.500 201.250 235.781 201.301 L 214.063 201.352 235.677 201.406 M114.632 203.125 C 114.632 203.526,114.675 203.690,114.727 203.490 C 114.779 203.289,114.779 202.961,114.727 202.760 C 114.675 202.560,114.632 202.724,114.632 203.125 M164.271 213.280 L 173.958 213.337 173.958 222.917 L 173.958 232.496 164.271 232.553 L 154.583 232.610 164.323 232.607 L 174.063 232.604 174.063 222.917 L 174.063 213.229 164.323 213.226 L 154.583 213.223 164.271 213.280 M192.240 213.281 C 193.643 213.317,195.940 213.317,197.344 213.281 C 198.747 213.245,197.599 213.215,194.792 213.215 C 191.984 213.215,190.836 213.245,192.240 213.281 M235.677 213.281 L 245.417 213.337 245.417 222.917 L 245.417 232.496 235.677 232.552 L 225.938 232.608 235.781 232.658 L 245.625 232.708 245.625 222.917 L 245.625 213.125 235.781 213.175 L 225.938 213.225 235.677 213.281 M284.215 214.583 C 284.215 214.984,284.258 215.148,284.310 214.948 C 284.363 214.747,284.363 214.419,284.310 214.219 C 284.258 214.018,284.215 214.182,284.215 214.583 M232.388 222.917 L 232.396 226.354 235.833 226.354 L 239.271 226.354 239.279 222.969 L 239.287 219.583 239.222 222.916 L 239.156 226.250 235.833 226.250 L 232.510 226.250 232.445 222.865 L 232.379 219.479 232.388 222.917 M162.562 226.405 C 163.571 226.444,165.164 226.443,166.104 226.405 C 167.044 226.366,166.219 226.335,164.271 226.335 C 162.323 226.335,161.554 226.367,162.562 226.405 M199.231 226.406 C 200.929 226.441,203.647 226.441,205.273 226.406 C 206.899 226.371,205.510 226.342,202.188 226.342 C 198.865 226.342,197.534 226.371,199.231 226.406 M282.965 228.542 C 282.965 228.943,283.008 229.107,283.060 228.906 C 283.113 228.706,283.113 228.378,283.060 228.177 C 283.008 227.977,282.965 228.141,282.965 228.542 M117.132 231.042 C 117.132 231.443,117.175 231.607,117.227 231.406 C 117.279 231.206,117.279 230.878,117.227 230.677 C 117.175 230.477,117.132 230.641,117.132 231.042 M282.757 231.042 C 282.757 231.443,282.800 231.607,282.852 231.406 C 282.904 231.206,282.904 230.878,282.852 230.677 C 282.800 230.477,282.757 230.641,282.757 231.042 M117.340 233.333 C 117.340 233.734,117.383 233.898,117.435 233.698 C 117.488 233.497,117.488 233.169,117.435 232.969 C 117.383 232.768,117.340 232.932,117.340 233.333 M117.548 235.625 C 117.548 236.026,117.591 236.190,117.644 235.990 C 117.696 235.789,117.696 235.461,117.644 235.260 C 117.591 235.060,117.548 235.224,117.548 235.625 M282.340 235.625 C 282.340 236.026,282.383 236.190,282.435 235.990 C 282.488 235.789,282.488 235.461,282.435 235.260 C 282.383 235.060,282.340 235.224,282.340 235.625 M282.132 237.917 C 282.132 238.318,282.175 238.482,282.227 238.281 C 282.279 238.081,282.279 237.753,282.227 237.552 C 282.175 237.352,282.132 237.516,282.132 237.917 M117.965 240.208 C 117.965 240.609,118.008 240.773,118.060 240.573 C 118.113 240.372,118.113 240.044,118.060 239.844 C 118.008 239.643,117.965 239.807,117.965 240.208 M118.173 242.708 C 118.173 243.109,118.216 243.273,118.269 243.073 C 118.321 242.872,118.321 242.544,118.269 242.344 C 118.216 242.143,118.173 242.307,118.173 242.708 M118.798 249.583 C 118.798 249.984,118.841 250.148,118.894 249.948 C 118.946 249.747,118.946 249.419,118.894 249.219 C 118.841 249.018,118.798 249.182,118.798 249.583 M245.508 250.687 C 245.450 250.840,245.432 251.990,245.469 253.243 L 245.537 255.521 245.581 253.073 L 245.625 250.625 251.458 250.625 L 257.292 250.625 257.292 258.957 L 257.292 267.289 241.302 267.344 L 225.313 267.398 241.409 267.449 L 257.505 267.500 257.450 259.010 L 257.396 250.521 251.505 250.465 C 246.757 250.421,245.594 250.464,245.508 250.687 M119.007 251.875 C 119.007 252.276,119.050 252.440,119.102 252.240 C 119.154 252.039,119.154 251.711,119.102 251.510 C 119.050 251.310,119.007 251.474,119.007 251.875 M151.250 253.906 C 151.250 253.992,157.063 254.063,164.167 254.063 C 171.271 254.063,177.083 253.992,177.083 253.906 C 177.083 253.820,171.271 253.750,164.167 253.750 C 157.063 253.750,151.250 253.820,151.250 253.906 M176.875 260.211 L 176.875 265.631 164.062 265.576 C 157.016 265.546,151.250 265.591,151.250 265.677 C 151.250 265.763,157.063 265.833,164.167 265.833 L 177.083 265.833 177.083 260.313 C 177.083 257.276,177.036 254.792,176.979 254.792 C 176.922 254.792,176.875 257.231,176.875 260.211 M280.465 256.667 C 280.465 257.068,280.508 257.232,280.560 257.031 C 280.613 256.831,280.613 256.503,280.560 256.302 C 280.508 256.102,280.465 256.266,280.465 256.667 M280.048 261.250 C 280.048 261.651,280.091 261.815,280.144 261.615 C 280.196 261.414,280.196 261.086,280.144 260.885 C 280.091 260.685,280.048 260.849,280.048 261.250 M199.231 268.698 C 200.929 268.733,203.647 268.733,205.273 268.697 C 206.899 268.662,205.510 268.634,202.188 268.634 C 198.865 268.634,197.534 268.662,199.231 268.698 M185.676 293.593 L 185.625 315.206 164.010 315.260 L 142.396 315.314 164.017 315.366 C 181.160 315.406,185.659 315.363,185.737 315.156 C 185.792 315.013,185.812 305.240,185.782 293.438 L 185.727 271.979 185.676 293.593 M257.343 293.593 L 257.292 315.206 235.677 315.260 L 214.063 315.314 235.684 315.366 C 252.826 315.406,257.325 315.363,257.404 315.156 C 257.459 315.013,257.479 305.240,257.449 293.438 L 257.394 271.979 257.343 293.593 M279.007 272.917 C 279.007 273.318,279.050 273.482,279.102 273.281 C 279.154 273.081,279.154 272.753,279.102 272.552 C 279.050 272.352,279.007 272.516,279.007 272.917 M278.798 275.208 C 278.798 275.609,278.841 275.773,278.894 275.573 C 278.946 275.372,278.946 275.044,278.894 274.844 C 278.841 274.643,278.798 274.807,278.798 275.208 M121.507 279.792 C 121.507 280.193,121.550 280.357,121.602 280.156 C 121.654 279.956,121.654 279.628,121.602 279.427 C 121.550 279.227,121.507 279.391,121.507 279.792 M173.800 293.592 L 173.750 303.329 164.010 303.385 L 154.271 303.442 164.017 303.492 C 171.659 303.531,173.785 303.485,173.863 303.281 C 173.918 303.138,173.937 298.708,173.906 293.438 L 173.850 283.854 173.800 293.592 M245.467 293.592 L 245.417 303.329 235.677 303.385 L 225.938 303.442 235.684 303.492 C 243.326 303.531,245.451 303.485,245.530 303.281 C 245.584 303.138,245.604 298.708,245.573 293.438 L 245.517 283.854 245.467 293.592 M277.965 284.583 C 277.965 284.984,278.008 285.148,278.060 284.948 C 278.113 284.747,278.113 284.419,278.060 284.219 C 278.008 284.018,277.965 284.182,277.965 284.583 M277.548 289.375 C 277.548 289.776,277.591 289.940,277.644 289.740 C 277.696 289.539,277.696 289.211,277.644 289.010 C 277.591 288.810,277.548 288.974,277.548 289.375 M161.344 290.472 C 161.286 290.623,161.267 292.196,161.302 293.967 L 161.366 297.188 161.412 293.802 L 161.458 290.417 164.787 290.417 L 168.115 290.417 168.180 293.750 L 168.245 297.084 168.237 293.698 L 168.229 290.313 164.839 290.255 C 162.187 290.210,161.426 290.258,161.344 290.472 M236.193 290.361 L 239.573 290.427 239.638 293.755 L 239.703 297.084 239.695 293.698 L 239.688 290.313 236.250 290.304 L 232.813 290.296 236.193 290.361 M122.548 291.458 C 122.548 291.859,122.591 292.023,122.644 291.823 C 122.696 291.622,122.696 291.294,122.644 291.094 C 122.591 290.893,122.548 291.057,122.548 291.458 M277.132 293.958 C 277.132 294.359,277.175 294.523,277.227 294.323 C 277.279 294.122,277.279 293.794,277.227 293.594 C 277.175 293.393,277.132 293.557,277.132 293.958 M122.965 296.042 C 122.965 296.443,123.008 296.607,123.060 296.406 C 123.113 296.206,123.113 295.878,123.060 295.677 C 123.008 295.477,122.965 295.641,122.965 296.042 M276.715 298.542 C 276.715 298.943,276.758 299.107,276.810 298.906 C 276.863 298.706,276.863 298.378,276.810 298.177 C 276.758 297.977,276.715 298.141,276.715 298.542 M276.298 303.125 C 276.298 303.526,276.341 303.690,276.394 303.490 C 276.446 303.289,276.446 302.961,276.394 302.760 C 276.341 302.560,276.298 302.724,276.298 303.125 M205.677 303.487 C 206.336 303.529,207.414 303.529,208.073 303.487 C 208.732 303.446,208.193 303.412,206.875 303.412 C 205.557 303.412,205.018 303.446,205.677 303.487 M276.090 305.625 C 276.090 306.026,276.133 306.190,276.185 305.990 C 276.238 305.789,276.238 305.461,276.185 305.260 C 276.133 305.060,276.090 305.224,276.090 305.625 M124.007 307.708 C 124.007 308.109,124.050 308.273,124.102 308.073 C 124.154 307.872,124.154 307.544,124.102 307.344 C 124.050 307.143,124.007 307.307,124.007 307.708 M124.215 310.000 C 124.215 310.401,124.258 310.565,124.310 310.365 C 124.363 310.164,124.363 309.836,124.310 309.635 C 124.258 309.435,124.215 309.599,124.215 310.000 M124.423 312.292 C 124.423 312.693,124.466 312.857,124.519 312.656 C 124.571 312.456,124.571 312.128,124.519 311.927 C 124.466 311.727,124.423 311.891,124.423 312.292 M275.257 315.000 C 275.257 315.401,275.300 315.565,275.352 315.365 C 275.404 315.164,275.404 314.836,275.352 314.635 C 275.300 314.435,275.257 314.599,275.257 315.000 M196.615 315.364 C 198.935 315.398,202.732 315.398,205.052 315.364 C 207.372 315.331,205.474 315.303,200.833 315.303 C 196.193 315.303,194.294 315.331,196.615 315.364 M274.840 319.583 C 274.840 319.984,274.883 320.148,274.935 319.948 C 274.988 319.747,274.988 319.419,274.935 319.219 C 274.883 319.018,274.840 319.182,274.840 319.583 M274.423 324.167 C 274.423 324.568,274.466 324.732,274.519 324.531 C 274.571 324.331,274.571 324.003,274.519 323.802 C 274.466 323.602,274.423 323.766,274.423 324.167 M125.673 326.250 C 125.673 326.651,125.716 326.815,125.769 326.615 C 125.821 326.414,125.821 326.086,125.769 325.885 C 125.716 325.685,125.673 325.849,125.673 326.250 M125.882 328.542 C 125.882 328.943,125.925 329.107,125.977 328.906 C 126.029 328.706,126.029 328.378,125.977 328.177 C 125.925 327.977,125.882 328.141,125.882 328.542 M127.340 345.417 C 127.340 345.818,127.383 345.982,127.435 345.781 C 127.488 345.581,127.488 345.253,127.435 345.052 C 127.383 344.852,127.340 345.016,127.340 345.417 M272.548 345.417 C 272.548 345.818,272.591 345.982,272.644 345.781 C 272.696 345.581,272.696 345.253,272.644 345.052 C 272.591 344.852,272.548 345.016,272.548 345.417 M127.548 347.708 C 127.548 348.109,127.591 348.273,127.644 348.073 C 127.696 347.872,127.696 347.544,127.644 347.344 C 127.591 347.143,127.548 347.307,127.548 347.708 M272.340 347.708 C 272.340 348.109,272.383 348.273,272.435 348.073 C 272.488 347.872,272.488 347.544,272.435 347.344 C 272.383 347.143,272.340 347.307,272.340 347.708 M272.132 350.000 C 272.132 350.401,272.175 350.565,272.227 350.365 C 272.279 350.164,272.279 349.836,272.227 349.635 C 272.175 349.435,272.132 349.599,272.132 350.000 M128.382 356.875 C 128.382 357.276,128.425 357.440,128.477 357.240 C 128.529 357.039,128.529 356.711,128.477 356.510 C 128.425 356.310,128.382 356.474,128.382 356.875 M271.507 356.875 C 271.507 357.276,271.550 357.440,271.602 357.240 C 271.654 357.039,271.654 356.711,271.602 356.510 C 271.550 356.310,271.507 356.474,271.507 356.875 M131.866 364.635 C 132.730 365.555,132.917 365.721,132.917 365.564 C 132.917 365.531,132.471 365.085,131.927 364.575 L 130.938 363.646 131.866 364.635 M267.905 364.740 L 267.188 365.521 267.969 364.803 C 268.398 364.408,268.750 364.056,268.750 364.022 C 268.750 363.863,268.574 364.012,267.905 364.740 M138.177 379.935 C 138.378 379.988,138.706 379.988,138.906 379.935 C 139.107 379.883,138.943 379.840,138.542 379.840 C 138.141 379.840,137.977 379.883,138.177 379.935 M261.094 379.935 C 261.294 379.988,261.622 379.988,261.823 379.935 C 262.023 379.883,261.859 379.840,261.458 379.840 C 261.057 379.840,260.893 379.883,261.094 379.935 " stroke="none" fill="#5f645e" fill-rule="evenodd"></path></g></svg>